<svg id="图层_1" data-name="图层 1" xmlns="http://www.w3.org/2000/svg" viewBox="0 0 386.1 508.49"><defs><style>.cls-1{fill:#33bab0;}.cls-2{fill:#fff;}</style></defs><title>dark blue location</title><g id="Forma_1" data-name="Forma 1"><path class="cls-1" d="M286.21,27.95c-106.45,0-193,84-193,187.2a178,178,0,0,0,16.88,76.42c48.27,102.42,140.81,210.55,168,241.25a10.94,10.94,0,0,0,16.28,0c27.22-30.69,119.75-138.82,168-241.25a177.92,177.92,0,0,0,16.88-76.42C479.26,111.92,392.66,27.95,286.21,27.95Zm0,284.43c-55.29,0-100.28-43.62-100.28-97.23s45-97.25,100.28-97.25S386.5,161.52,386.5,215.15,341.51,312.38,286.21,312.38Z" transform="translate(-93.17 -27.95)"/></g><ellipse class="cls-1" cx="196.58" cy="193.73" rx="138.25" ry="108.75"/><path class="cls-2" d="M286.22,61.1A158.11,158.11,0,1,0,444.34,219.22,158.11,158.11,0,0,0,286.22,61.1m-.62,88c-13.52,0-24.22,4.15-31.79,12.46s-11.48,20.27-11.48,35.91v30.25h31.9V255h-31.9v42.23H213.25V198.73c0-25.08,6.6-44.13,19.3-57.16S263.12,122,285.84,122s40.36,6.41,53,19.21l-26.61,16.08c-7-5.44-15.87-8.18-26.6-8.18m72.14,148.05H328.66V255H293.94V227.76h34.72v-29c0-10.05-1.42-18.65-4.52-25.8l25.73-15.6c5.22,10.93,7.88,24.23,7.88,39.94Z" transform="translate(-93.17 -27.95)"/></svg>